<svg width="150" height="150" viewBox="0 0 150 150" fill="none" xmlns="http://www.w3.org/2000/svg">
<path d="M15.1215 89V62.1328H25.6605C31.7836 62.1328 35.2719 65.8809 35.2719 71.1875C35.2719 76.5684 31.7094 80.2422 25.5121 80.2422H20.6879V89H15.1215ZM20.6879 75.752H24.6215C27.9242 75.752 29.5199 73.8965 29.5199 71.1875C29.5199 68.5156 27.9242 66.6973 24.6215 66.6973H20.6879V75.752ZM36.8973 89V62.1328H47.4363C53.5594 62.1328 57.0477 65.584 57.0477 70.8906C57.0477 74.5645 55.3592 77.2363 52.2977 78.5352L58.0125 89H51.8523L46.7313 79.4629H42.4637V89H36.8973ZM42.4637 74.9355H46.3973C49.7 74.9355 51.2957 73.5625 51.2957 70.8906C51.2957 68.1816 49.7 66.6973 46.3973 66.6973H42.4637V74.9355ZM83.6105 75.5664C83.6105 84.3242 78.1555 89.3711 71.0676 89.3711C63.9055 89.3711 58.4875 84.2871 58.4875 75.5664C58.4875 66.8086 63.9055 61.7617 71.0676 61.7617C78.1555 61.7617 83.6105 66.8086 83.6105 75.5664ZM77.9328 75.5664C77.9328 69.8145 75.2238 66.6973 71.0676 66.6973C66.9113 66.6973 64.1652 69.8145 64.1652 75.5664C64.1652 81.3184 66.9113 84.4355 71.0676 84.4355C75.2238 84.4355 77.9328 81.3184 77.9328 75.5664ZM85.7184 62.1328H92.6207L100.08 80.3535H100.377L107.836 62.1328H114.738V89H109.32V71.4102H109.097L102.084 88.8887H98.3727L91.359 71.3359H91.1363V89H85.7184V62.1328ZM141.969 75.5664C141.969 84.3242 136.514 89.3711 129.426 89.3711C122.264 89.3711 116.846 84.2871 116.846 75.5664C116.846 66.8086 122.264 61.7617 129.426 61.7617C136.514 61.7617 141.969 66.8086 141.969 75.5664ZM136.291 75.5664C136.291 69.8145 133.582 66.6973 129.426 66.6973C125.27 66.6973 122.523 69.8145 122.523 75.5664C122.523 81.3184 125.27 84.4355 129.426 84.4355C133.582 84.4355 136.291 81.3184 136.291 75.5664Z" fill="#123562"/>
</svg>
